<?xml version="1.0" encoding="UTF-8" standalone="no"?><!DOCTYPE svg PUBLIC "-//W3C//DTD SVG 1.1//EN" "http://www.w3.org/Graphics/SVG/1.1/DTD/svg11.dtd"><svg width="100%" height="100%" viewBox="0 0 291 308" version="1.1" xmlns="http://www.w3.org/2000/svg" xmlns:xlink="http://www.w3.org/1999/xlink" xml:space="preserve" xmlns:serif="http://www.serif.com/" style="fill-rule:evenodd;clip-rule:evenodd;stroke-linejoin:round;stroke-miterlimit:2;"><rect id="Artboard4" x="0" y="0" width="290.639" height="308" style="fill:none;"/><clipPath id="_clip1"><rect x="0" y="0" width="290.639" height="308"/></clipPath><g clip-path="url(#_clip1)"><g><path d="M0.925,62.722c-0.612,-18.805 9.372,-24.118 30.337,-18.974c21.356,5.238 67.855,34.294 67.855,34.294l50.51,-18.773c47.073,-17.499 99.391,6.68 116.567,53.871l19.861,54.57c17.094,46.965 -7.121,98.894 -54.086,115.987l-53.625,19.519c-46.964,17.093 -98.894,-7.122 -115.987,-54.086c-0,0 -30.669,-84.263 -38.635,-106.149c-7.966,-21.885 -22.186,-61.454 -22.797,-80.259" style="fill:#fadf70;fill-rule:nonzero;"/><path d="M40.536,15.888c5.857,-17.88 17.056,-19.457 34.997,-7.455c18.277,12.228 52.033,55.435 52.033,55.435l53.886,-0.367c50.217,-0.344 91.111,40.272 91.111,90.491l-0,58.073c-0,49.979 -40.515,90.494 -90.493,90.494l-57.068,-0c-49.978,-0 -90.494,-40.515 -90.494,-90.494l-0,-112.961c-0,-23.29 0.171,-65.337 6.028,-83.216" style="fill:#2662d9;fill-rule:nonzero;"/><circle cx="153.535" cy="183.028" r="10.538" style="fill:#fff;"/><circle cx="183.969" cy="183.028" r="10.538" style="fill:#fff;"/><circle cx="123.102" cy="183.028" r="10.538" style="fill:#fff;"/></g></g><g id="Layer-1" serif:id="Layer 1"></g></svg>