<?xml version="1.0" encoding="UTF-8" standalone="no"?><!DOCTYPE svg PUBLIC "-//W3C//DTD SVG 1.1//EN" "http://www.w3.org/Graphics/SVG/1.1/DTD/svg11.dtd"><svg width="100%" height="100%" viewBox="0 0 32 32" version="1.1" xmlns="http://www.w3.org/2000/svg" xmlns:xlink="http://www.w3.org/1999/xlink" xml:space="preserve" xmlns:serif="http://www.serif.com/" style="fill-rule:evenodd;clip-rule:evenodd;stroke-linejoin:round;stroke-miterlimit:2;"><rect id="Icon" x="-0" y="0" width="32" height="32" style="fill:none;"/><clipPath id="_clip1"><rect x="-0" y="0" width="32" height="32"/></clipPath><g clip-path="url(#_clip1)"><g><path d="M4.021,1.61c0.621,-1.895 1.808,-2.062 3.71,-0.79c1.938,1.296 5.516,5.877 5.516,5.877l5.712,-0.039c5.324,-0.037 9.659,4.269 9.659,9.593l-0,6.156c-0,5.298 -4.295,9.593 -9.593,9.593l-6.05,-0c-5.298,-0 -9.593,-4.295 -9.593,-9.593l0,-11.975c0,-2.469 0.018,-6.926 0.639,-8.822" style="fill:#2662d9;fill-rule:nonzero;"/><circle cx="16" cy="19.329" r="1.117" style="fill:#fff;"/><circle cx="19.226" cy="19.329" r="1.117" style="fill:#fff;"/><circle cx="12.774" cy="19.329" r="1.117" style="fill:#fff;"/></g></g><g id="Layer-1" serif:id="Layer 1"></g></svg>