<?xml version="1.0" encoding="UTF-8" standalone="no"?><!DOCTYPE svg PUBLIC "-//W3C//DTD SVG 1.1//EN" "http://www.w3.org/Graphics/SVG/1.1/DTD/svg11.dtd"><svg width="100%" height="100%" viewBox="0 0 64 64" version="1.1" xmlns="http://www.w3.org/2000/svg" xmlns:xlink="http://www.w3.org/1999/xlink" xml:space="preserve" xmlns:serif="http://www.serif.com/" style="fill-rule:evenodd;clip-rule:evenodd;stroke-linejoin:round;stroke-miterlimit:2;"><rect id="White-circle-icon" serif:id="White circle icon" x="-0" y="-0" width="64" height="64" style="fill:none;"/><clipPath id="_clip1"><rect x="-0" y="-0" width="64" height="64"/></clipPath><g clip-path="url(#_clip1)"><g><circle cx="32" cy="32" r="32" style="fill:#fff;"/><g><path d="M14.736,11.261c0.894,-2.732 2.605,-2.973 5.346,-1.139c2.793,1.868 7.95,8.47 7.95,8.47l8.233,-0.056c7.673,-0.053 13.92,6.153 13.92,13.825l0,8.873c0,7.636 -6.189,13.826 -13.825,13.826l-8.719,-0c-7.636,-0 -13.826,-6.19 -13.826,-13.826l-0,-17.259c-0,-3.558 0.026,-9.982 0.921,-12.714" style="fill:#2662d9;fill-rule:nonzero;"/><circle cx="32" cy="36.797" r="1.61" style="fill:#fff;"/><circle cx="36.65" cy="36.797" r="1.61" style="fill:#fff;"/><circle cx="27.35" cy="36.797" r="1.61" style="fill:#fff;"/></g></g></g></svg>